HIERARCHY
ROOT joint_Root
{
	OFFSET 0.0 0.0 0.0
	CHANNELS 6 Xposition Yposition Zposition Zrotation Xrotation Yrotation 
	JOINT Hips
	{
		OFFSET 4.5925 91.4895 -427.239
		CHANNELS 6 Xposition Yposition Zposition Zrotation Xrotation Yrotation 
		JOINT Spine
		{
			OFFSET 15.7357 0.0 0.0
			CHANNELS 6 Xposition Yposition Zposition Zrotation Xrotation Yrotation 
			JOINT Chest
			{
				OFFSET 8.98455 -0.406207 0.0
				CHANNELS 6 Xposition Yposition Zposition Zrotation Xrotation Yrotation 
				JOINT Neck
				{
					OFFSET 16.3773 0.0 0.0
					CHANNELS 6 Xposition Yposition Zposition Zrotation Xrotation Yrotation 
					JOINT Head
					{
						OFFSET 6.45672 0.0 0.0
						CHANNELS 6 Xposition Yposition Zposition Zrotation Xrotation Yrotation 
						End Site
						{
							OFFSET 0.0 0.0 0.0
						}
					}
				}
				JOINT Shoulder_L
				{
					OFFSET 12.9942 -0.242716 4.98039
					CHANNELS 6 Xposition Yposition Zposition Zrotation Xrotation Yrotation 
					JOINT UpperArm_L
					{
						OFFSET 5.34809 0.0 0.0
						CHANNELS 6 Xposition Yposition Zposition Zrotation Xrotation Yrotation 
						JOINT LowerArm_L
						{
							OFFSET 24.3286 1.87007e-05 0.0
							CHANNELS 6 Xposition Yposition Zposition Zrotation Xrotation Yrotation 
							JOINT Hand_L
							{
								OFFSET 22.2916 0.0 0.0
								CHANNELS 6 Xposition Yposition Zposition Zrotation Xrotation Yrotation 
								End Site
								{
									OFFSET 0.0 0.0 0.0
								}
							}
						}
					}
				}
				JOINT Shoulder_R
				{
					OFFSET 12.9945 -0.242716 -4.98039
					CHANNELS 6 Xposition Yposition Zposition Zrotation Xrotation Yrotation 
					JOINT UpperArm_R
					{
						OFFSET -5.34813 0.0 0.0
						CHANNELS 6 Xposition Yposition Zposition Zrotation Xrotation Yrotation 
						JOINT LowerArm_R
						{
							OFFSET -24.3289 0.000322201 0.0
							CHANNELS 6 Xposition Yposition Zposition Zrotation Xrotation Yrotation 
							JOINT Hand_R
							{
								OFFSET -22.2915 -0.000108084 0.0
								CHANNELS 6 Xposition Yposition Zposition Zrotation Xrotation Yrotation 
								End Site
								{
									OFFSET 0.0 0.0 0.0
								}
							}
						}
					}
				}
			}
		}
		JOINT UpperLeg_L
		{
			OFFSET -2.19248 -6.46944 0.0
			CHANNELS 6 Xposition Yposition Zposition Zrotation Xrotation Yrotation 
			JOINT LowerLeg_L
			{
				OFFSET 39.0811 0.0 -1.23785e-05
				CHANNELS 6 Xposition Yposition Zposition Zrotation Xrotation Yrotation 
				JOINT Foot_L
				{
					OFFSET 40.9854 0.0 -1.26872e-05
					CHANNELS 6 Xposition Yposition Zposition Zrotation Xrotation Yrotation 
					JOINT Toes_L
					{
						OFFSET 11.7543 0.0 0.0
						CHANNELS 6 Xposition Yposition Zposition Zrotation Xrotation Yrotation 
						End Site
						{
							OFFSET 0.0 0.0 0.0
						}
					}
				}
			}
		}
		JOINT UpperLeg_R
		{
			OFFSET -2.19251 6.46944 0.0
			CHANNELS 6 Xposition Yposition Zposition Zrotation Xrotation Yrotation 
			JOINT LowerLeg_R
			{
				OFFSET -39.0811 -0.00228153 -0.0401928
				CHANNELS 6 Xposition Yposition Zposition Zrotation Xrotation Yrotation 
				JOINT Foot_R
				{
					OFFSET -40.9854 0.0 0.0
					CHANNELS 6 Xposition Yposition Zposition Zrotation Xrotation Yrotation 
					JOINT Toes_R
					{
						OFFSET -11.7543 0.0 0.0
						CHANNELS 6 Xposition Yposition Zposition Zrotation Xrotation Yrotation 
						End Site
						{
							OFFSET 0.0 0.0 0.0
						}
					}
				}
			}
		}
	}
}
MOTION
Frames:	4
Frame Time:	0.0333333
0.000000 0.000000 0.000000 0.000000 0.000000 -0.000000 -1.878030 89.724000 -3.270440 87.900600 -2.242050 14.816700 15.735700 0.000005 -0.000001 87.317100 76.552200 -88.022300 8.984550 -0.406207 -0.000000 19.095800 -1.302520 -1.195140 16.377300 -0.000001 -0.000001 6.983320 -4.845350 1.538880 6.456720 -0.000001 -0.000000 -6.691100 -3.247810 -3.691680 12.994200 -0.242716 4.980390 -91.361100 6.294270 -77.772100 5.348090 -0.000007 -0.000001 -53.017700 39.107900 -30.029700 24.328600 0.000019 0.000005 7.606910 20.504000 -20.870600 22.291600 -0.000001 0.000005 7.473170 5.270980 0.872042 12.994500 -0.242716 -4.980390 89.122100 4.351380 -78.582300 -5.348130 -0.000001 -0.000004 -68.375300 -14.909100 -64.237400 -24.328900 0.000322 -0.000009 19.983500 -4.174030 -101.319000 -22.291500 -0.000108 -0.000004 29.456400 5.268880 0.928256 -2.192480 -6.469440 -0.000000 -171.690000 -12.148000 -1.199830 39.081100 -0.000007 -0.000012 -0.234042 0.302732 37.708100 40.985400 -0.000006 -0.000013 -0.333075 3.986810 -71.167600 11.754300 -0.000000 0.000003 -0.000224 -0.002039 -16.654200 -2.192510 6.469440 -0.000001 175.069000 21.012700 -178.767000 -39.081100 -0.002282 -0.040193 -0.225764 0.319537 35.634300 -40.985400 0.000008 0.000006 4.619920 11.811700 -71.566700 -11.754300 -0.000006 -0.000006 -0.003425 -0.045315 -18.416200
0.000000 0.000000 0.000000 0.000000 0.000000 -0.000000 -1.879740 89.715000 -3.364440 87.903200 -2.218600 14.927200 15.735700 0.000005 -0.000001 87.371800 76.490100 -88.075300 8.984550 -0.406207 -0.000000 19.221100 -1.283220 -1.193410 16.377300 -0.000001 -0.000001 7.218650 -4.868580 1.500050 6.456720 -0.000001 -0.000000 -6.477520 -3.328570 -3.732880 12.994200 -0.242716 4.980390 -91.363000 6.301350 -77.769100 5.348090 -0.000007 -0.000001 -52.966600 39.130100 -30.099500 24.328600 0.000019 0.000005 7.577290 20.427100 -20.863900 22.291600 -0.000001 0.000005 7.515330 5.273250 0.810054 12.994500 -0.242716 -4.980390 89.114400 4.360720 -78.508000 -5.348130 -0.000001 -0.000004 -68.381300 -14.895700 -64.297000 -24.328900 0.000322 -0.000009 19.973900 -4.176250 -101.331000 -22.291500 -0.000108 -0.000004 29.525200 5.268360 0.942291 -2.192480 -6.469440 -0.000000 -171.670000 -12.170000 -1.191950 39.081100 -0.000007 -0.000012 -0.236805 0.305704 37.762600 40.985400 -0.000006 -0.000013 -0.313000 4.015420 -71.118900 11.754300 -0.000000 0.000003 -0.000216 -0.001972 -16.651800 -2.192510 6.469440 -0.000001 175.035000 21.020800 -178.741000 -39.081100 -0.002282 -0.040193 -0.231102 0.326500 35.674500 -40.985400 0.000008 0.000006 4.496250 11.837100 -71.488800 -11.754300 -0.000006 -0.000006 -0.003181 -0.042636 -18.307100
0.000000 0.000000 0.000000 0.000000 0.000000 -0.000000 -1.891830 89.712800 -3.454490 87.897800 -2.181230 15.005000 15.735700 0.000005 -0.000001 87.315500 76.439500 -88.019600 8.984550 -0.406207 -0.000000 19.320800 -1.314240 -1.188340 16.377300 -0.000001 -0.000001 7.406420 -4.887270 1.455860 6.456720 -0.000001 -0.000000 -6.242000 -3.370010 -3.746890 12.994200 -0.242716 4.980390 -91.360400 6.289620 -77.769800 5.348090 -0.000007 -0.000001 -52.977500 39.116100 -30.101900 24.328600 0.000019 0.000005 7.594890 20.494300 -20.848800 22.291600 -0.000001 0.000005 7.506630 5.273270 0.809737 12.994500 -0.242716 -4.980390 89.107800 4.380780 -78.476800 -5.348130 -0.000001 -0.000004 -68.363400 -14.887100 -64.347100 -24.328900 0.000322 -0.000009 19.985400 -4.178650 -101.330000 -22.291500 -0.000108 -0.000004 29.484400 5.267590 0.963029 -2.192480 -6.469440 -0.000000 -171.654000 -12.140500 -1.198850 39.081100 -0.000007 -0.000012 -0.239625 0.309071 37.787200 40.985400 -0.000006 -0.000013 -0.311340 4.026360 -71.061600 11.754300 -0.000000 0.000003 -0.000220 -0.002005 -16.653000 -2.192510 6.469440 -0.000001 175.033000 21.041100 -178.730000 -39.081100 -0.002282 -0.040193 -0.232264 0.327864 35.695600 -40.985400 0.000008 0.000006 4.493790 11.827200 -71.440500 -11.754300 -0.000006 -0.000006 -0.003266 -0.043578 -18.345500
0.000000 0.000000 0.000000 0.000000 0.000000 -0.000000 -1.904110 89.714000 -3.555050 87.884200 -2.142960 15.024900 15.735700 0.000005 -0.000001 87.237900 76.415300 -87.941100 8.984550 -0.406207 -0.000000 19.367500 -1.352530 -1.179500 16.377300 -0.000001 -0.000001 7.565090 -4.895960 1.364850 6.456720 -0.000001 -0.000000 -6.021420 -3.423250 -3.712230 12.994200 -0.242716 4.980390 -91.371200 6.310290 -77.713900 5.348090 -0.000007 -0.000001 -52.962400 39.124300 -30.117800 24.328600 0.000019 0.000005 7.561490 20.474500 -20.781400 22.291600 -0.000001 0.000005 7.477480 5.272840 0.821192 12.994500 -0.242716 -4.980390 89.108700 4.377090 -78.478500 -5.348130 -0.000001 -0.000004 -68.347800 -14.896600 -64.332000 -24.328900 0.000322 -0.000009 19.925100 -4.169090 -101.341000 -22.291500 -0.000108 -0.000004 29.454600 5.269620 0.908429 -2.192480 -6.469440 -0.000000 -171.656000 -12.118700 -1.276590 39.081100 -0.000007 -0.000012 -0.233012 0.300312 37.808400 40.985400 -0.000006 -0.000013 -0.297360 4.047870 -70.991900 11.754300 -0.000000 0.000003 -0.000215 -0.001964 -16.651500 -2.192510 6.469440 -0.000001 175.057000 21.094900 -178.782000 -39.081100 -0.002282 -0.040193 -0.234190 0.330520 35.697600 -40.985400 0.000008 0.000006 4.467320 11.843400 -71.363700 -11.754300 -0.000006 -0.000006 -0.003248 -0.043379 -18.337300
